<svg width="21" height="21" viewBox="0 0 21 21" fill="none" xmlns="http://www.w3.org/2000/svg">
<path d="M18 10.9124C18 10.3162 17.9507 9.8812 17.8438 9.43005H10.8984V12.1208H14.9752C14.8931 12.7895 14.4492 13.7966 13.4629 14.4733L13.449 14.5634L15.6451 16.2309L15.7972 16.2457C17.1945 14.9809 18 13.1198 18 10.9124Z" fill="#4285F4"/>
<path d="M10.8976 17.9994C12.8949 17.9994 14.5716 17.3549 15.7963 16.2431L13.462 14.4707C12.8374 14.8977 11.999 15.1958 10.8976 15.1958C8.94137 15.1958 7.28106 13.931 6.68921 12.1827L6.60246 12.19L4.31902 13.9221L4.28915 14.0034C5.50561 16.372 8.00432 17.9994 10.8976 17.9994Z" fill="#34A853"/>
<path d="M6.6891 12.1832C6.53293 11.732 6.44256 11.2486 6.44256 10.7491C6.44256 10.2496 6.53293 9.76623 6.68088 9.31508L6.67675 9.21899L4.36469 7.45905L4.28904 7.49431C3.78768 8.4772 3.5 9.58095 3.5 10.7491C3.5 11.9173 3.78768 13.021 4.28904 14.0039L6.6891 12.1832Z" fill="#FBBC05"/>
<path d="M10.8976 6.3036C12.2866 6.3036 13.2236 6.89171 13.7579 7.38318L15.8456 5.38519C14.5634 4.21702 12.8949 3.5 10.8976 3.5C8.00432 3.5 5.50561 5.12737 4.28915 7.49593L6.68099 9.31669C7.28106 7.56846 8.94137 6.3036 10.8976 6.3036Z" fill="#EB4335"/>
</svg>
