<svg width="21" height="21" viewBox="0 0 21 21" fill="none" xmlns="http://www.w3.org/2000/svg">
<path d="M15.3275 10.7251C15.3073 8.44743 17.155 7.35389 17.2366 7.30321C16.1983 5.75565 14.5795 5.53996 14.0053 5.51408C12.6269 5.3728 11.3153 6.34124 10.6182 6.34124C9.92112 6.34124 8.84049 5.53781 7.70052 5.56045C6.19611 5.58094 4.8146 6.45016 4.04014 7.81439C2.48064 10.5687 3.63967 14.6517 5.16209 16.8851C5.90371 17.9787 6.78834 19.207 7.95055 19.1628C9.0725 19.1186 9.49628 18.4262 10.8503 18.4262C12.2042 18.4262 12.5846 19.1628 13.7701 19.1445C14.9747 19.1186 15.7385 18.025 16.4738 16.9315C17.3256 15.6622 17.6794 14.4338 17.6996 14.3691C17.6731 14.3594 15.3497 13.4514 15.3264 10.7251H15.3275Z" fill="white"/>
<path d="M12.8725 4.3855C13.4939 3.62188 13.9121 2.55823 13.7972 1.5C12.9044 1.53466 11.8223 2.10764 11.1828 2.86801C10.6071 3.54714 10.1017 4.63245 10.2389 5.66794C11.2338 5.74484 12.2543 5.15128 12.8725 4.3855Z" fill="white"/>
</svg>
